<?xml version="1.0" encoding="UTF-8"?>
<svg version="1.1" xmlns="http://www.w3.org/2000/svg" width="45" height="46">
<path d="M0 0 C0.68530273 1.78417969 0.68530273 1.78417969 1 4 C-0.17163086 5.73925781 -0.17163086 5.73925781 -1.96484375 7.453125 C-2.53581787 8.01161133 -3.10679199 8.57009766 -3.69506836 9.14550781 C-4.80507202 10.18723145 -4.80507202 10.18723145 -5.9375 11.25 C-8.268125 13.4775 -10.59875 15.705 -13 18 C3.335 18.495 3.335 18.495 20 19 C20 20.98 20 22.96 20 25 C3.665 25.495 3.665 25.495 -13 26 C-8.36093206 30.44139257 -8.36093206 30.44139257 -3.69506836 34.85449219 C-3.12409424 35.41297852 -2.55312012 35.97146484 -1.96484375 36.546875 C-1.3730835 37.11245117 -0.78132324 37.67802734 -0.17163086 38.26074219 C1 40 1 40 0.68530273 42.21582031 C0 44 0 44 -1.6862793 44.77001953 C-4 45 -4 45 -6.39770508 43.26513672 C-7.26290771 42.41193848 -8.12811035 41.55874023 -9.01953125 40.6796875 C-9.48236008 40.22401398 -9.9451889 39.76834045 -10.42204285 39.29885864 C-11.3972207 38.33146522 -12.36603233 37.35761827 -13.32885742 36.37792969 C-14.80581542 34.88177147 -16.30968629 33.41721526 -17.81835938 31.953125 C-18.76219087 31.00958392 -19.70430871 30.06432489 -20.64453125 29.1171875 C-21.50409424 28.25722168 -22.36365723 27.39725586 -23.24926758 26.51123047 C-25 24 -25 24 -25.02709961 21.47045898 C-22.93115655 16.42913551 -18.57675693 12.96635202 -14.75 9.1875 C-13.89019531 8.30384766 -13.03039062 7.42019531 -12.14453125 6.50976562 C-11.30792969 5.67509766 -10.47132812 4.84042969 -9.609375 3.98046875 C-8.84592773 3.21629639 -8.08248047 2.45212402 -7.29589844 1.66479492 C-4.61307737 -0.28056417 -3.2399769 -0.364408 0 0 Z " fill="#FFFFFF" transform="translate(25,0)"/>
</svg>
