<svg xmlns="http://www.w3.org/2000/svg" xmlns:xlink="http://www.w3.org/1999/xlink" width="90" zoomAndPan="magnify" viewBox="0 0 67.5 67.499996" height="90" preserveAspectRatio="xMidYMid meet" version="1.0"><defs><clipPath id="55273560cc"><path d="M 4 16.601562 L 62.730469 16.601562 L 62.730469 50.101562 L 4 50.101562 Z M 4 16.601562 " clip-rule="nonzero"/></clipPath><clipPath id="8ac38c3789"><path d="M 0.289062 0.890625 L 58.730469 0.890625 L 58.730469 34.101562 L 0.289062 34.101562 Z M 0.289062 0.890625 " clip-rule="nonzero"/></clipPath><clipPath id="e78b98f2fc"><rect x="0" width="59" y="0" height="35"/></clipPath></defs><g clip-path="url(#55273560cc)"><g transform="matrix(1, 0, 0, 1, 4, 16)"><g clip-path="url(#e78b98f2fc)"><g clip-path="url(#8ac38c3789)"><path fill="#7a98c9" d="M 57.492188 32.683594 C 57.296875 32.894531 57.082031 33.085938 56.847656 33.25 C 56.613281 33.417969 56.363281 33.558594 56.097656 33.675781 C 55.835938 33.792969 55.5625 33.878906 55.28125 33.9375 C 55 33.996094 54.714844 34.027344 54.425781 34.027344 C 54.136719 34.027344 53.851562 33.996094 53.570312 33.9375 C 53.289062 33.878906 53.015625 33.792969 52.75 33.675781 C 52.488281 33.558594 52.238281 33.417969 52.003906 33.25 C 51.769531 33.085938 51.554688 32.894531 51.359375 32.683594 L 29.707031 10.988281 L 7.929688 32.683594 C 7.726562 32.882812 7.507812 33.0625 7.273438 33.222656 C 7.035156 33.378906 6.785156 33.515625 6.523438 33.621094 C 6.257812 33.730469 5.988281 33.8125 5.707031 33.871094 C 5.429688 33.925781 5.148438 33.953125 4.863281 33.953125 C 4.578125 33.953125 4.296875 33.925781 4.015625 33.867188 C 3.738281 33.8125 3.46875 33.730469 3.203125 33.621094 C 2.941406 33.511719 2.691406 33.378906 2.453125 33.222656 C 2.21875 33.0625 2 32.882812 1.796875 32.683594 C 1.597656 32.480469 1.417969 32.261719 1.257812 32.023438 C 1.101562 31.789062 0.964844 31.539062 0.859375 31.277344 C 0.75 31.011719 0.667969 30.742188 0.609375 30.460938 C 0.554688 30.183594 0.527344 29.902344 0.527344 29.617188 C 0.527344 29.332031 0.554688 29.050781 0.609375 28.769531 C 0.664062 28.492188 0.75 28.21875 0.855469 27.957031 C 0.964844 27.695312 1.097656 27.445312 1.257812 27.207031 C 1.414062 26.972656 1.59375 26.75 1.796875 26.550781 L 26.578125 1.769531 C 26.773438 1.558594 26.988281 1.367188 27.222656 1.199219 C 27.457031 1.035156 27.707031 0.890625 27.96875 0.777344 C 28.234375 0.660156 28.507812 0.574219 28.789062 0.515625 C 29.070312 0.457031 29.355469 0.425781 29.644531 0.425781 C 29.933594 0.425781 30.21875 0.457031 30.5 0.515625 C 30.78125 0.574219 31.054688 0.660156 31.316406 0.777344 C 31.582031 0.890625 31.832031 1.035156 32.066406 1.199219 C 32.300781 1.367188 32.515625 1.558594 32.710938 1.769531 L 57.492188 26.550781 C 57.703125 26.746094 57.894531 26.960938 58.058594 27.195312 C 58.226562 27.429688 58.367188 27.679688 58.484375 27.941406 C 58.601562 28.207031 58.6875 28.480469 58.746094 28.761719 C 58.804688 29.042969 58.835938 29.328125 58.835938 29.617188 C 58.835938 29.90625 58.804688 30.191406 58.746094 30.472656 C 58.6875 30.753906 58.601562 31.027344 58.484375 31.289062 C 58.367188 31.554688 58.226562 31.804688 58.058594 32.039062 C 57.894531 32.273438 57.703125 32.488281 57.492188 32.683594 Z M 57.492188 32.683594 " fill-opacity="1" fill-rule="nonzero"/></g></g></g></g></svg>