<?xml version="1.0" encoding="UTF-8"?>
<svg version="1.1" xmlns="http://www.w3.org/2000/svg" width="54" height="30">
<path d="M0 0 C2.2109375 -0.30078125 2.2109375 -0.30078125 5 0 C7.3515625 2.08203125 7.3515625 2.08203125 9.625 4.8125 C10.38039062 5.70582031 11.13578125 6.59914063 11.9140625 7.51953125 C12.60242187 8.33808594 13.29078125 9.15664062 14 10 C14.60585938 10.49886719 15.21171875 10.99773438 15.8359375 11.51171875 C17 13 17 13 16.96484375 15.3984375 C15.75331092 18.66516164 14.10402998 20.25832728 11.5625 22.625 C8.99021921 25.04451291 6.96671171 27.04993243 5 30 C2.375 30.1875 2.375 30.1875 0 30 C0.18900548 23.76281908 2.90631266 23.09368734 8 18 C-6.85 17.67 -21.7 17.34 -37 17 C-37 15.68 -37 14.36 -37 13 C-14.725 12.505 -14.725 12.505 8 12 C5.36 9.36 2.72 6.72 0 4 C0 2.68 0 1.36 0 0 Z " fill="#FFFFFF" transform="translate(37,0)"/>
</svg>
