<svg xmlns="http://www.w3.org/2000/svg" xmlns:xlink="http://www.w3.org/1999/xlink" width="90" zoomAndPan="magnify" viewBox="0 0 67.5 67.499996" height="90" preserveAspectRatio="xMidYMid meet" version="1.0"><defs><clipPath id="8722c55d89"><path d="M 4 16.601562 L 62.730469 16.601562 L 62.730469 50.101562 L 4 50.101562 Z M 4 16.601562 " clip-rule="nonzero"/></clipPath></defs><g clip-path="url(#8722c55d89)"><path fill="#7a98c9" d="M 61.492188 18.3125 C 61.296875 18.101562 61.082031 17.910156 60.847656 17.742188 C 60.613281 17.574219 60.363281 17.433594 60.097656 17.320312 C 59.835938 17.203125 59.5625 17.117188 59.28125 17.058594 C 59 17 58.714844 16.96875 58.425781 16.96875 C 58.136719 16.96875 57.851562 17 57.570312 17.058594 C 57.289062 17.117188 57.015625 17.203125 56.75 17.320312 C 56.488281 17.433594 56.238281 17.574219 56.003906 17.742188 C 55.769531 17.910156 55.554688 18.101562 55.359375 18.3125 L 33.707031 40.003906 L 11.929688 18.3125 C 11.726562 18.109375 11.507812 17.929688 11.273438 17.773438 C 11.035156 17.613281 10.785156 17.480469 10.523438 17.371094 C 10.257812 17.261719 9.988281 17.179688 9.707031 17.125 C 9.429688 17.070312 9.148438 17.042969 8.863281 17.042969 C 8.578125 17.042969 8.296875 17.070312 8.015625 17.125 C 7.738281 17.179688 7.46875 17.265625 7.203125 17.371094 C 6.941406 17.480469 6.691406 17.617188 6.453125 17.773438 C 6.21875 17.929688 6 18.113281 5.796875 18.3125 C 5.597656 18.515625 5.417969 18.734375 5.257812 18.96875 C 5.101562 19.207031 4.964844 19.457031 4.859375 19.71875 C 4.75 19.980469 4.667969 20.253906 4.609375 20.53125 C 4.554688 20.8125 4.527344 21.09375 4.527344 21.378906 C 4.527344 21.664062 4.554688 21.945312 4.609375 22.222656 C 4.664062 22.503906 4.75 22.773438 4.855469 23.039062 C 4.964844 23.300781 5.097656 23.550781 5.257812 23.789062 C 5.414062 24.023438 5.59375 24.242188 5.796875 24.445312 L 30.578125 49.226562 C 30.773438 49.4375 30.988281 49.625 31.222656 49.792969 C 31.457031 49.960938 31.707031 50.101562 31.96875 50.21875 C 32.234375 50.332031 32.507812 50.421875 32.789062 50.480469 C 33.070312 50.539062 33.355469 50.570312 33.644531 50.570312 C 33.933594 50.570312 34.21875 50.539062 34.5 50.480469 C 34.78125 50.421875 35.054688 50.332031 35.316406 50.21875 C 35.582031 50.101562 35.832031 49.960938 36.066406 49.792969 C 36.300781 49.625 36.515625 49.4375 36.710938 49.226562 L 61.492188 24.445312 C 61.703125 24.25 61.894531 24.035156 62.058594 23.800781 C 62.226562 23.566406 62.367188 23.316406 62.484375 23.050781 C 62.601562 22.789062 62.6875 22.515625 62.746094 22.234375 C 62.804688 21.949219 62.835938 21.667969 62.835938 21.378906 C 62.835938 21.089844 62.804688 20.804688 62.746094 20.523438 C 62.6875 20.242188 62.601562 19.96875 62.484375 19.703125 C 62.367188 19.441406 62.226562 19.191406 62.058594 18.957031 C 61.894531 18.722656 61.703125 18.507812 61.492188 18.3125 Z M 61.492188 18.3125 " fill-opacity="1" fill-rule="nonzero"/></g></svg>