<svg xmlns="http://www.w3.org/2000/svg" xmlns:xlink="http://www.w3.org/1999/xlink" width="90" zoomAndPan="magnify" viewBox="0 0 67.5 67.499996" height="90" preserveAspectRatio="xMidYMid meet" version="1.0"><defs><clipPath id="283bac8f50"><path d="M 15 2.773438 L 52 2.773438 L 52 56 L 15 56 Z M 15 2.773438 " clip-rule="nonzero"/></clipPath><clipPath id="98e8723161"><path d="M 2.773438 41 L 64.566406 41 L 64.566406 64.566406 L 2.773438 64.566406 Z M 2.773438 41 " clip-rule="nonzero"/></clipPath></defs><g clip-path="url(#283bac8f50)"><path fill="#7a98c9" d="M 33.5 8.359375 C 26.519531 8.359375 20.859375 14.019531 20.859375 21 C 20.859375 27.398438 24.339844 34.839844 28.15625 40.972656 C 30.023438 43.976562 31.894531 46.550781 33.300781 48.371094 C 33.367188 48.460938 33.433594 48.546875 33.5 48.628906 C 33.5625 48.546875 33.632812 48.460938 33.699219 48.371094 C 35.105469 46.550781 36.976562 43.976562 38.84375 40.972656 C 42.65625 34.839844 46.140625 27.398438 46.140625 21 C 46.140625 14.019531 40.480469 8.359375 33.5 8.359375 Z M 33.5 53.054688 C 31.398438 54.894531 31.398438 54.894531 31.398438 54.894531 L 31.382812 54.875 L 31.34375 54.832031 C 31.308594 54.792969 31.261719 54.738281 31.199219 54.667969 C 31.078125 54.523438 30.90625 54.316406 30.683594 54.050781 C 30.246094 53.519531 29.621094 52.75 28.875 51.785156 C 27.386719 49.855469 25.402344 47.125 23.410156 43.925781 C 19.503906 37.644531 15.273438 29.058594 15.273438 21 C 15.273438 10.933594 23.433594 2.773438 33.5 2.773438 C 43.566406 2.773438 51.726562 10.933594 51.726562 21 C 51.726562 29.058594 47.492188 37.644531 43.589844 43.925781 C 41.597656 47.125 39.609375 49.855469 38.121094 51.785156 C 37.375 52.75 36.753906 53.519531 36.3125 54.050781 C 36.09375 54.316406 35.917969 54.523438 35.796875 54.667969 C 35.734375 54.738281 35.6875 54.792969 35.65625 54.832031 L 35.617188 54.875 L 35.601562 54.894531 C 35.601562 54.894531 35.597656 54.894531 33.5 53.054688 Z M 33.5 53.054688 L 35.597656 54.894531 C 35.070312 55.5 34.304688 55.847656 33.5 55.847656 C 32.695312 55.847656 31.929688 55.5 31.398438 54.894531 Z M 33.5 53.054688 " fill-opacity="1" fill-rule="evenodd"/></g><path fill="#7a98c9" d="M 33.503906 16.667969 C 31.113281 16.667969 29.171875 18.609375 29.171875 21 C 29.171875 23.390625 31.113281 25.328125 33.503906 25.328125 C 35.894531 25.328125 37.832031 23.390625 37.832031 21 C 37.832031 18.609375 35.894531 16.667969 33.503906 16.667969 Z M 23.585938 21 C 23.585938 15.523438 28.027344 11.082031 33.503906 11.082031 C 38.980469 11.082031 43.421875 15.523438 43.421875 21 C 43.421875 26.476562 38.980469 30.917969 33.503906 30.917969 C 28.027344 30.917969 23.585938 26.476562 23.585938 21 Z M 23.585938 21 " fill-opacity="1" fill-rule="evenodd"/><g clip-path="url(#98e8723161)"><path fill="#7a98c9" d="M 10.1875 49.519531 C 8.527344 50.65625 8.359375 51.433594 8.359375 51.65625 C 8.359375 51.84375 8.460938 52.414062 9.542969 53.3125 C 10.605469 54.191406 12.3125 55.109375 14.671875 55.933594 C 19.359375 57.574219 26.015625 58.640625 33.5 58.640625 C 40.984375 58.640625 47.640625 57.574219 52.328125 55.933594 C 54.6875 55.109375 56.394531 54.191406 57.457031 53.3125 C 58.539062 52.414062 58.640625 51.84375 58.640625 51.65625 C 58.640625 51.433594 58.472656 50.65625 56.8125 49.519531 C 55.230469 48.4375 52.773438 47.382812 49.550781 46.535156 L 50.972656 41.132812 C 54.53125 42.070312 57.660156 43.328125 59.96875 44.910156 C 62.199219 46.4375 64.226562 48.679688 64.226562 51.65625 C 64.226562 54.171875 62.765625 56.171875 61.019531 57.613281 C 59.257812 59.074219 56.875 60.261719 54.175781 61.207031 C 48.753906 63.105469 41.441406 64.226562 33.5 64.226562 C 25.558594 64.226562 18.246094 63.105469 12.824219 61.207031 C 10.125 60.261719 7.742188 59.074219 5.980469 57.613281 C 4.234375 56.171875 2.773438 54.171875 2.773438 51.65625 C 2.773438 48.679688 4.796875 46.4375 7.03125 44.910156 C 9.339844 43.328125 12.46875 42.070312 16.03125 41.132812 L 17.449219 46.535156 C 14.226562 47.382812 11.769531 48.4375 10.1875 49.519531 Z M 10.1875 49.519531 " fill-opacity="1" fill-rule="evenodd"/></g></svg>