<svg xmlns="http://www.w3.org/2000/svg" xmlns:xlink="http://www.w3.org/1999/xlink" width="90" zoomAndPan="magnify" viewBox="0 0 67.5 67.499996" height="90" preserveAspectRatio="xMidYMid meet" version="1.0"><defs><clipPath id="a8c6b95d89"><path d="M 2.6875 10.085938 L 64.480469 10.085938 L 64.480469 56.988281 L 2.6875 56.988281 Z M 2.6875 10.085938 " clip-rule="nonzero"/></clipPath></defs><g clip-path="url(#a8c6b95d89)"><path fill="#7a98c9" d="M 35.640625 33.246094 C 34.417969 34.324219 32.578125 34.324219 31.359375 33.246094 L 10.410156 14.667969 L 56.589844 14.667969 Z M 43.8125 34.980469 L 40.691406 38.308594 L 55.652344 52.34375 L 11.175781 52.34375 L 25.375 38.25 L 22.164062 35.011719 L 7.253906 49.808594 L 7.253906 17.964844 L 28.332031 36.65625 C 29.757812 37.921875 31.59375 38.617188 33.5 38.617188 C 35.40625 38.617188 37.242188 37.921875 38.664062 36.65625 L 59.746094 17.964844 L 59.746094 49.929688 Z M 57.496094 10.105469 L 9.5 10.105469 C 5.746094 10.105469 2.691406 13.160156 2.691406 16.917969 L 2.691406 50.09375 C 2.691406 53.847656 5.746094 56.902344 9.5 56.902344 L 57.496094 56.902344 C 61.253906 56.902344 64.308594 53.847656 64.308594 50.09375 L 64.308594 16.917969 C 64.308594 13.160156 61.253906 10.105469 57.496094 10.105469 " fill-opacity="1" fill-rule="nonzero"/></g></svg>