<svg xmlns="http://www.w3.org/2000/svg" xmlns:xlink="http://www.w3.org/1999/xlink" width="90" zoomAndPan="magnify" viewBox="0 0 67.5 67.499996" height="90" preserveAspectRatio="xMidYMid meet" version="1.0"><defs><clipPath id="1abd1f3549"><path d="M 3.902344 4 L 63 4 L 63 60 L 3.902344 60 Z M 3.902344 4 " clip-rule="nonzero"/></clipPath></defs><g clip-path="url(#1abd1f3549)"><path fill="#7a98c9" d="M 62.765625 8.355469 L 51.949219 52.859375 C 51.894531 53.070312 51.820312 53.273438 51.722656 53.46875 C 51.625 53.664062 51.503906 53.847656 51.363281 54.015625 C 51.226562 54.183594 51.070312 54.332031 50.894531 54.464844 C 50.722656 54.597656 50.535156 54.710938 50.335938 54.800781 C 50.136719 54.890625 49.929688 54.957031 49.71875 55 C 49.503906 55.042969 49.289062 55.0625 49.070312 55.058594 C 48.851562 55.054688 48.636719 55.023438 48.421875 54.96875 C 48.210938 54.914062 48.007812 54.839844 47.816406 54.738281 L 34.570312 47.90625 L 28.234375 58.257812 C 28.039062 58.578125 27.800781 58.855469 27.515625 59.09375 C 27.230469 59.332031 26.917969 59.519531 26.570312 59.65625 C 26.222656 59.792969 25.867188 59.867188 25.492188 59.886719 C 25.121094 59.90625 24.757812 59.863281 24.402344 59.761719 C 24.042969 59.664062 23.710938 59.507812 23.402344 59.296875 C 23.097656 59.089844 22.832031 58.835938 22.605469 58.539062 C 22.382812 58.242188 22.210938 57.917969 22.09375 57.566406 C 21.972656 57.214844 21.914062 56.851562 21.914062 56.480469 L 21.914062 43.011719 L 22.988281 41.949219 L 27.824219 37.203125 L 48.5 16.902344 L 16.890625 38.8125 L 5.171875 32.777344 C 4.773438 32.570312 4.457031 32.277344 4.226562 31.890625 C 4 31.503906 3.890625 31.085938 3.902344 30.636719 C 3.914062 30.1875 4.042969 29.773438 4.289062 29.398438 C 4.539062 29.027344 4.867188 28.746094 5.277344 28.5625 L 58.1875 4.570312 C 58.765625 4.320312 59.363281 4.242188 59.984375 4.332031 C 60.601562 4.417969 61.152344 4.664062 61.636719 5.0625 C 62.121094 5.460938 62.460938 5.957031 62.664062 6.550781 C 62.867188 7.144531 62.902344 7.746094 62.765625 8.355469 Z M 62.765625 8.355469 " fill-opacity="1" fill-rule="nonzero"/></g></svg>