<?xml version="1.0" encoding="UTF-8"?>
<svg version="1.1" xmlns="http://www.w3.org/2000/svg" width="45" height="46">
<path d="M0 0 C5.62474514 2.06960149 9.64859746 7.19754855 13.8125 11.3125 C14.70904297 12.16779297 15.60558594 13.02308594 16.52929688 13.90429688 C17.37169922 14.73638672 18.21410156 15.56847656 19.08203125 16.42578125 C19.85780518 17.18286377 20.6335791 17.93994629 21.43286133 18.7199707 C23 21 23 21 22.99975586 23.49560547 C20.97306252 28.57248466 16.57785448 32.03256417 12.75 35.8125 C11.89019531 36.69615234 11.03039063 37.57980469 10.14453125 38.49023438 C9.30792969 39.32490234 8.47132812 40.15957031 7.609375 41.01953125 C6.84592773 41.78370361 6.08248047 42.54787598 5.29589844 43.33520508 C2.61307737 45.28056417 1.2399769 45.364408 -2 45 C-2.68530273 43.21582031 -2.68530273 43.21582031 -3 41 C-1.82836914 39.26074219 -1.82836914 39.26074219 -0.03515625 37.546875 C0.53581787 36.98838867 1.10679199 36.42990234 1.69506836 35.85449219 C2.4350708 35.16000977 3.17507324 34.46552734 3.9375 33.75 C6.268125 31.5225 8.59875 29.295 11 27 C0.11 26.67 -10.78 26.34 -22 26 C-22 24.02 -22 22.04 -22 20 C-11.11 19.67 -0.22 19.34 11 19 C6.36093206 14.55860743 6.36093206 14.55860743 1.69506836 10.14550781 C1.12409424 9.58702148 0.55312012 9.02853516 -0.03515625 8.453125 C-0.6269165 7.88754883 -1.21867676 7.32197266 -1.82836914 6.73925781 C-3 5 -3 5 -2.81030273 2.84667969 C-2 1 -2 1 0 0 Z " fill="#FFFFFF" transform="translate(22,1)"/>
</svg>
