<svg xmlns="http://www.w3.org/2000/svg" xmlns:xlink="http://www.w3.org/1999/xlink" width="90" zoomAndPan="magnify" viewBox="0 0 67.5 67.499996" height="90" preserveAspectRatio="xMidYMid meet" version="1.0"><defs><clipPath id="12f3b73cb6"><path d="M 3.253906 11 L 56 11 L 56 63.707031 L 3.253906 63.707031 Z M 3.253906 11 " clip-rule="nonzero"/></clipPath><clipPath id="99c894b2c9"><path d="M 31 3.40625 L 63.558594 3.40625 L 63.558594 36 L 31 36 Z M 31 3.40625 " clip-rule="nonzero"/></clipPath></defs><g clip-path="url(#12f3b73cb6)"><path fill="#7a98c9" d="M 48.527344 43.382812 C 48.246094 43.101562 47.945312 42.855469 47.617188 42.632812 C 47.289062 42.414062 46.941406 42.230469 46.578125 42.078125 C 46.210938 41.929688 45.835938 41.8125 45.449219 41.738281 C 45.0625 41.660156 44.671875 41.621094 44.277344 41.621094 C 43.882812 41.621094 43.492188 41.660156 43.105469 41.738281 C 42.71875 41.8125 42.34375 41.929688 41.976562 42.078125 C 41.613281 42.230469 41.265625 42.414062 40.9375 42.632812 C 40.609375 42.855469 40.308594 43.101562 40.027344 43.382812 L 37.125 46.28125 C 33.84375 44.203125 30.828125 41.789062 28.085938 39.035156 C 25.335938 36.292969 22.917969 33.28125 20.839844 30 L 23.742188 27.097656 C 24.019531 26.820312 24.269531 26.515625 24.488281 26.1875 C 24.707031 25.859375 24.894531 25.511719 25.042969 25.148438 C 25.195312 24.785156 25.308594 24.40625 25.386719 24.019531 C 25.464844 23.632812 25.5 23.242188 25.5 22.847656 C 25.5 22.453125 25.464844 22.0625 25.386719 21.675781 C 25.308594 21.289062 25.195312 20.914062 25.042969 20.550781 C 24.894531 20.183594 24.707031 19.839844 24.488281 19.511719 C 24.269531 19.183594 24.019531 18.878906 23.742188 18.597656 L 18.078125 12.9375 C 17.515625 12.371094 16.871094 11.9375 16.132812 11.632812 C 15.398438 11.328125 14.632812 11.175781 13.839844 11.175781 C 13.039062 11.171875 12.269531 11.324219 11.53125 11.628906 C 10.792969 11.933594 10.140625 12.371094 9.578125 12.9375 L 6.859375 15.65625 C 4.367188 18.148438 3.253906 21.78125 3.644531 26.164062 C 4.289062 33.683594 9.214844 42.710938 16.808594 50.3125 C 24.402344 57.914062 33.4375 62.835938 40.945312 63.472656 C 41.519531 63.527344 42.078125 63.550781 42.628906 63.550781 C 46.261719 63.550781 49.296875 62.425781 51.460938 60.261719 L 54.183594 57.542969 C 54.460938 57.261719 54.710938 56.960938 54.929688 56.632812 C 55.148438 56.304688 55.335938 55.957031 55.484375 55.59375 C 55.636719 55.230469 55.75 54.851562 55.828125 54.464844 C 55.90625 54.078125 55.945312 53.6875 55.945312 53.292969 C 55.945312 52.898438 55.90625 52.507812 55.828125 52.121094 C 55.75 51.734375 55.636719 51.359375 55.484375 50.992188 C 55.335938 50.628906 55.148438 50.28125 54.929688 49.953125 C 54.710938 49.625 54.460938 49.324219 54.183594 49.042969 Z M 51.351562 54.714844 L 48.636719 57.433594 C 46.578125 59.488281 43.523438 59.679688 41.296875 59.492188 C 34.792969 58.933594 26.492188 54.339844 19.640625 47.472656 C 12.789062 40.605469 8.195312 32.324219 7.625 25.808594 C 7.425781 23.601562 7.625 20.535156 9.675781 18.480469 L 12.410156 15.773438 C 12.804688 15.375 13.28125 15.179688 13.839844 15.183594 C 14.390625 15.1875 14.855469 15.382812 15.242188 15.773438 L 20.910156 21.433594 C 21.097656 21.621094 21.242188 21.835938 21.34375 22.082031 C 21.445312 22.328125 21.496094 22.582031 21.496094 22.847656 C 21.496094 23.113281 21.445312 23.371094 21.34375 23.613281 C 21.242188 23.859375 21.097656 24.078125 20.910156 24.265625 L 16.902344 28.269531 C 16.582031 28.589844 16.390625 28.976562 16.332031 29.425781 C 16.273438 29.878906 16.359375 30.296875 16.585938 30.691406 C 18.996094 34.789062 21.886719 38.515625 25.257812 41.867188 C 28.609375 45.238281 32.335938 48.128906 36.433594 50.539062 C 36.828125 50.769531 37.25 50.851562 37.699219 50.792969 C 38.148438 50.734375 38.535156 50.542969 38.855469 50.222656 L 42.859375 46.21875 C 43.046875 46.03125 43.265625 45.882812 43.511719 45.78125 C 43.757812 45.679688 44.011719 45.628906 44.277344 45.628906 C 44.542969 45.628906 44.796875 45.679688 45.042969 45.78125 C 45.289062 45.882812 45.507812 46.03125 45.695312 46.21875 L 51.351562 51.882812 C 51.539062 52.070312 51.683594 52.285156 51.785156 52.53125 C 51.886719 52.777344 51.9375 53.03125 51.9375 53.296875 C 51.9375 53.5625 51.886719 53.816406 51.785156 54.0625 C 51.683594 54.308594 51.539062 54.523438 51.351562 54.710938 Z M 51.351562 54.714844 " fill-opacity="1" fill-rule="nonzero"/></g><g clip-path="url(#99c894b2c9)"><path fill="#7a98c9" d="M 54.851562 12.269531 C 53.457031 10.867188 51.9375 9.617188 50.292969 8.519531 C 48.648438 7.417969 46.914062 6.492188 45.085938 5.734375 C 43.257812 4.980469 41.371094 4.410156 39.429688 4.03125 C 37.492188 3.648438 35.53125 3.460938 33.554688 3.46875 C 33.289062 3.46875 33.03125 3.519531 32.785156 3.621094 C 32.539062 3.722656 32.324219 3.867188 32.136719 4.054688 C 31.949219 4.242188 31.804688 4.460938 31.703125 4.703125 C 31.601562 4.949219 31.550781 5.207031 31.550781 5.472656 C 31.550781 5.738281 31.601562 5.992188 31.703125 6.238281 C 31.804688 6.484375 31.949219 6.699219 32.136719 6.886719 C 32.324219 7.074219 32.539062 7.21875 32.785156 7.320312 C 33.03125 7.421875 33.289062 7.472656 33.554688 7.472656 C 34.410156 7.472656 35.269531 7.511719 36.121094 7.59375 C 36.976562 7.679688 37.824219 7.804688 38.667969 7.96875 C 39.511719 8.136719 40.34375 8.34375 41.164062 8.59375 C 41.984375 8.839844 42.792969 9.128906 43.585938 9.460938 C 44.378906 9.789062 45.152344 10.15625 45.910156 10.5625 C 46.667969 10.964844 47.402344 11.40625 48.117188 11.886719 C 48.828125 12.363281 49.515625 12.875 50.179688 13.421875 C 50.839844 13.96875 51.476562 14.546875 52.082031 15.15625 C 52.683594 15.765625 53.257812 16.402344 53.800781 17.066406 C 54.34375 17.734375 54.851562 18.421875 55.324219 19.140625 C 55.800781 19.855469 56.238281 20.59375 56.636719 21.351562 C 57.039062 22.109375 57.402344 22.886719 57.726562 23.683594 C 58.050781 24.476562 58.332031 25.289062 58.578125 26.109375 C 58.820312 26.933594 59.023438 27.765625 59.1875 28.609375 C 59.347656 29.453125 59.46875 30.300781 59.546875 31.15625 C 59.625 32.011719 59.660156 32.867188 59.652344 33.726562 C 59.652344 33.992188 59.703125 34.246094 59.800781 34.492188 C 59.902344 34.734375 60.046875 34.949219 60.234375 35.140625 C 60.417969 35.328125 60.632812 35.472656 60.878906 35.574219 C 61.121094 35.675781 61.375 35.730469 61.640625 35.730469 L 61.65625 35.730469 C 61.921875 35.730469 62.175781 35.679688 62.421875 35.578125 C 62.667969 35.476562 62.882812 35.332031 63.070312 35.144531 C 63.257812 34.957031 63.402344 34.738281 63.503906 34.492188 C 63.605469 34.25 63.65625 33.992188 63.65625 33.726562 C 63.675781 31.734375 63.5 29.761719 63.125 27.804688 C 62.746094 25.851562 62.183594 23.949219 61.425781 22.109375 C 60.667969 20.265625 59.738281 18.515625 58.632812 16.859375 C 57.527344 15.203125 56.265625 13.675781 54.851562 12.269531 Z M 54.851562 12.269531 " fill-opacity="1" fill-rule="nonzero"/></g><path fill="#7a98c9" d="M 43.457031 23.710938 C 44.605469 24.855469 45.488281 26.175781 46.105469 27.679688 C 46.71875 29.183594 47.015625 30.746094 46.996094 32.367188 C 46.992188 32.632812 47.042969 32.890625 47.140625 33.136719 C 47.242188 33.382812 47.382812 33.601562 47.570312 33.789062 C 47.757812 33.980469 47.972656 34.125 48.21875 34.230469 C 48.464844 34.332031 48.71875 34.386719 48.984375 34.386719 L 49 34.386719 C 49.265625 34.386719 49.519531 34.335938 49.765625 34.234375 C 50.011719 34.132812 50.226562 33.988281 50.414062 33.800781 C 50.601562 33.613281 50.746094 33.398438 50.847656 33.152344 C 50.949219 32.90625 51 32.652344 51 32.386719 C 51.003906 31.855469 50.984375 31.324219 50.9375 30.796875 C 50.886719 30.269531 50.8125 29.746094 50.714844 29.222656 C 50.613281 28.703125 50.488281 28.1875 50.335938 27.679688 C 50.1875 27.171875 50.011719 26.671875 49.8125 26.179688 C 49.609375 25.691406 49.386719 25.210938 49.140625 24.742188 C 48.890625 24.273438 48.621094 23.816406 48.328125 23.375 C 48.035156 22.933594 47.722656 22.503906 47.386719 22.09375 C 47.050781 21.683594 46.699219 21.289062 46.324219 20.914062 C 45.949219 20.535156 45.558594 20.179688 45.148438 19.84375 C 44.742188 19.503906 44.316406 19.1875 43.875 18.894531 C 43.433594 18.597656 42.980469 18.324219 42.511719 18.074219 C 42.046875 17.824219 41.566406 17.597656 41.078125 17.394531 C 40.585938 17.191406 40.089844 17.011719 39.582031 16.855469 C 39.074219 16.703125 38.558594 16.574219 38.039062 16.472656 C 37.519531 16.367188 36.996094 16.292969 36.46875 16.238281 C 35.941406 16.1875 35.410156 16.164062 34.878906 16.164062 C 34.613281 16.164062 34.359375 16.214844 34.113281 16.316406 C 33.867188 16.417969 33.652344 16.5625 33.464844 16.75 C 33.277344 16.9375 33.132812 17.15625 33.03125 17.402344 C 32.929688 17.644531 32.878906 17.902344 32.878906 18.167969 C 32.878906 18.433594 32.929688 18.6875 33.03125 18.933594 C 33.132812 19.179688 33.277344 19.394531 33.464844 19.582031 C 33.652344 19.769531 33.867188 19.917969 34.113281 20.019531 C 34.359375 20.121094 34.613281 20.171875 34.878906 20.171875 C 36.488281 20.164062 38.035156 20.46875 39.523438 21.082031 C 41.007812 21.695312 42.320312 22.570312 43.457031 23.710938 Z M 43.457031 23.710938 " fill-opacity="1" fill-rule="nonzero"/></svg>