<svg xmlns="http://www.w3.org/2000/svg" xmlns:xlink="http://www.w3.org/1999/xlink" width="90" zoomAndPan="magnify" viewBox="0 0 67.5 67.499996" height="90" preserveAspectRatio="xMidYMid meet" version="1.0"><defs><clipPath id="1daec08a61"><path d="M 1.890625 1.890625 L 65.171875 1.890625 L 65.171875 65.171875 L 1.890625 65.171875 Z M 1.890625 1.890625 " clip-rule="nonzero"/></clipPath></defs><g clip-path="url(#1daec08a61)"><path fill="#7a98c9" d="M 33.496094 65.101562 C 50.953125 65.101562 65.101562 50.953125 65.101562 33.496094 C 65.101562 16.039062 50.953125 1.890625 33.496094 1.890625 C 16.039062 1.890625 1.890625 16.039062 1.890625 33.496094 C 1.890625 50.953125 16.039062 65.101562 33.496094 65.101562 Z M 29.222656 19.414062 L 49.039062 30.425781 C 51.449219 31.765625 51.449219 35.226562 49.039062 36.566406 L 29.222656 47.578125 C 26.414062 49.136719 22.960938 47.105469 22.960938 43.894531 L 22.960938 23.097656 C 22.960938 19.886719 26.414062 17.855469 29.222656 19.414062 Z M 29.222656 19.414062 " fill-opacity="1" fill-rule="evenodd"/></g></svg>