<svg xmlns="http://www.w3.org/2000/svg" xmlns:xlink="http://www.w3.org/1999/xlink" width="90" zoomAndPan="magnify" viewBox="0 0 67.5 67.499996" height="90" preserveAspectRatio="xMidYMid meet" version="1.0"><defs><clipPath id="17af024cb4"><path d="M 21.289062 2.082031 L 45.855469 2.082031 L 45.855469 64.621094 L 21.289062 64.621094 Z M 21.289062 2.082031 " clip-rule="nonzero"/></clipPath></defs><g clip-path="url(#17af024cb4)"><path fill="#ffffff" d="M 44.964844 32.5 C 45.335938 31.980469 45.703125 31.09375 45.703125 31.09375 L 43.558594 29.613281 C 43.558594 29.613281 43.1875 29.835938 43.117188 29.910156 C 43.117188 29.984375 43.117188 30.132812 42.820312 30.277344 C 42.523438 30.425781 42.152344 30.574219 42.003906 30.648438 C 41.859375 30.722656 42.003906 30.871094 41.488281 30.648438 C 40.96875 30.425781 39.859375 28.355469 39.710938 27.984375 C 39.5625 27.617188 39.269531 26.949219 39.046875 26.578125 C 38.824219 26.285156 37.9375 25.617188 37.714844 25.394531 C 37.492188 25.171875 36.972656 24.730469 36.824219 24.433594 C 36.679688 24.210938 36.898438 22.730469 36.824219 22.4375 C 36.753906 22.140625 36.53125 21.917969 36.679688 21.546875 C 36.753906 21.179688 36.824219 20.660156 36.898438 20.140625 L 40.304688 19.328125 L 36.753906 19.179688 C 36.679688 19.03125 36.605469 18.882812 36.53125 18.738281 L 39.339844 16.8125 L 35.863281 17.996094 C 35.789062 17.921875 35.714844 17.847656 35.566406 17.847656 L 36.382812 14.296875 L 34.679688 17.480469 C 34.457031 17.40625 34.238281 17.40625 34.015625 17.332031 L 32.90625 13.78125 L 32.980469 17.40625 C 32.832031 17.40625 32.683594 17.480469 32.535156 17.554688 L 29.5 15.257812 L 31.722656 18.144531 C 31.722656 18.144531 31.722656 18.21875 31.648438 18.21875 L 28.761719 17.996094 C 28.613281 17.480469 27.945312 14.816406 27.800781 14.59375 C 27.652344 14.371094 27.578125 13.707031 27.429688 13.335938 C 27.28125 12.964844 27.355469 11.335938 27.28125 11.117188 C 27.207031 10.894531 27.207031 10.449219 27.058594 10.226562 C 26.910156 10.003906 26.6875 9.636719 26.617188 9.5625 C 26.542969 9.488281 26.394531 9.117188 26.320312 8.820312 C 26.246094 8.527344 26.320312 7.859375 26.320312 7.785156 C 26.320312 7.710938 26.394531 7.046875 26.394531 7.046875 C 26.394531 7.046875 26.617188 7.195312 26.984375 6.824219 C 27.28125 6.453125 27.503906 6.085938 27.503906 5.863281 C 27.503906 5.714844 27.503906 5.34375 27.503906 5.34375 C 27.503906 5.34375 26.910156 4.902344 26.617188 4.828125 C 26.320312 4.753906 26.617188 4.308594 26.617188 4.234375 C 26.617188 4.160156 26.984375 4.160156 27.28125 3.421875 C 27.578125 2.679688 27.578125 2.605469 27.578125 2.386719 C 27.578125 2.164062 27.800781 2.089844 27.578125 2.164062 C 27.355469 2.238281 27.132812 2.238281 27.058594 2.386719 C 26.984375 2.605469 26.984375 2.753906 26.835938 2.753906 C 26.6875 2.753906 26.320312 2.386719 26.320312 2.386719 C 26.320312 2.386719 26.023438 2.386719 25.875 2.53125 C 25.726562 2.679688 25.503906 2.53125 25.210938 2.753906 C 24.914062 2.976562 24.765625 2.976562 24.691406 3.199219 C 24.691406 3.421875 24.542969 3.496094 24.542969 3.789062 C 24.542969 4.085938 24.542969 4.234375 24.691406 4.457031 C 24.914062 4.679688 24.839844 4.972656 24.839844 4.972656 C 24.839844 4.972656 24.542969 5.269531 24.542969 5.269531 C 24.46875 5.269531 23.953125 5.269531 23.804688 5.492188 C 23.65625 5.714844 23.433594 5.9375 23.359375 6.160156 C 23.359375 6.378906 23.210938 6.675781 23.359375 6.898438 C 23.507812 7.121094 23.65625 7.488281 23.878906 7.636719 C 24.101562 7.785156 24.394531 7.636719 24.46875 8.082031 C 24.542969 8.601562 24.394531 9.339844 24.394531 9.710938 C 24.394531 10.078125 24.394531 10.523438 24.46875 10.96875 C 24.542969 11.335938 24.691406 11.707031 24.839844 12.003906 C 24.914062 12.300781 24.988281 12.667969 25.0625 13.039062 C 25.0625 13.410156 25.0625 13.78125 25.136719 13.925781 C 25.210938 14.074219 25.726562 18.957031 26.835938 20.957031 C 26.835938 20.957031 25.652344 24.285156 25.875 25.246094 C 25.875 25.246094 25.800781 26.285156 26.761719 26.285156 C 26.761719 26.285156 26.835938 27.320312 27.652344 27.320312 C 27.652344 27.320312 27.800781 28.429688 27.875 28.726562 C 28.019531 29.019531 28.019531 29.390625 27.945312 29.6875 C 27.800781 29.910156 27.503906 30.351562 27.800781 30.648438 C 28.09375 30.945312 28.316406 31.167969 28.390625 31.242188 C 28.539062 31.390625 28.539062 31.832031 28.390625 32.277344 C 28.242188 32.722656 28.019531 33.164062 28.019531 33.164062 C 28.019531 33.164062 27.503906 33.683594 27.429688 34.347656 C 27.28125 35.015625 27.132812 35.457031 27.207031 35.902344 C 27.28125 36.421875 27.355469 36.863281 27.503906 37.160156 C 27.652344 37.457031 27.800781 37.824219 27.945312 38.046875 C 28.09375 38.269531 27.945312 38.714844 27.800781 39.378906 C 27.652344 40.046875 27.652344 40.195312 27.578125 40.636719 C 27.578125 41.082031 27.355469 41.527344 27.429688 42.042969 C 27.503906 42.5625 27.578125 42.636719 27.726562 42.929688 C 27.875 43.226562 27.800781 43.300781 27.945312 44.042969 C 28.09375 44.78125 28.242188 44.855469 28.242188 45.152344 C 28.242188 45.445312 28.242188 46.410156 28.242188 46.851562 C 28.242188 47.371094 28.019531 47.445312 28.09375 48.332031 C 28.09375 49.21875 28.242188 49.441406 28.316406 49.886719 C 28.464844 50.332031 28.761719 51.957031 28.6875 52.625 C 28.613281 53.289062 28.539062 53.4375 28.6875 54.324219 C 28.835938 55.214844 29.277344 56.472656 29.351562 56.695312 C 29.425781 56.988281 29.207031 57.285156 29.207031 57.582031 C 29.132812 57.878906 29.058594 58.027344 29.351562 58.394531 C 29.574219 58.765625 29.574219 58.765625 29.425781 59.210938 C 29.207031 59.578125 29.207031 59.578125 29.132812 59.875 C 29.058594 60.246094 28.984375 60.246094 28.761719 60.542969 C 28.539062 60.761719 28.464844 60.984375 27.875 61.207031 C 27.28125 61.429688 27.058594 61.207031 26.761719 61.578125 C 26.394531 61.945312 24.839844 62.316406 24.691406 62.316406 C 24.617188 62.316406 24.246094 62.390625 24.101562 62.835938 L 23.359375 62.835938 C 22.25 62.835938 21.289062 63.722656 21.289062 64.90625 L 44.742188 64.90625 C 44.742188 63.796875 43.855469 62.835938 42.671875 62.835938 L 41.710938 62.835938 C 41.414062 62.390625 41.042969 61.726562 40.96875 61.503906 C 40.820312 61.058594 40.820312 60.761719 40.671875 60.320312 C 40.527344 59.800781 40.597656 59.503906 40.453125 58.691406 C 40.304688 57.953125 40.230469 57.65625 40.230469 57.210938 C 40.230469 56.769531 40.15625 56.695312 40.453125 56.25 C 40.820312 55.804688 40.820312 55.511719 40.820312 55.214844 C 40.820312 54.917969 40.96875 53.957031 40.820312 53.511719 C 40.671875 53.066406 40.597656 52.921875 40.671875 52.550781 C 40.746094 52.179688 40.894531 52.179688 40.96875 51.734375 C 41.042969 51.292969 41.191406 51.367188 41.191406 50.847656 C 41.265625 50.332031 41.339844 49.886719 41.339844 49.441406 C 41.339844 48.925781 41.339844 47.59375 41.339844 47.59375 C 41.339844 47.59375 40.671875 43.523438 40.597656 43.226562 C 40.597656 42.929688 40.597656 42.191406 40.597656 41.746094 C 40.597656 41.304688 40.304688 40.34375 40.597656 40.5625 C 40.894531 40.785156 41.5625 41.082031 41.929688 40.785156 C 42.300781 40.488281 42.96875 40.414062 43.1875 39.898438 C 43.410156 39.378906 43.632812 39.378906 43.78125 38.789062 C 43.929688 38.269531 44.078125 38.121094 44.152344 37.753906 C 44.226562 37.382812 44.226562 36.347656 44.375 36.199219 C 44.519531 36.050781 44.742188 36.125 44.964844 35.605469 C 45.113281 35.089844 45.335938 35.089844 45.335938 34.496094 C 45.335938 33.90625 45.335938 33.832031 45.113281 33.386719 C 44.964844 32.867188 44.519531 33.089844 44.964844 32.5 Z M 31.648438 21.472656 C 31.792969 21.84375 31.5 22.140625 31.5 22.140625 C 31.5 22.140625 31.5 22.953125 31.203125 22.730469 C 30.90625 22.511719 30.757812 22.4375 30.683594 22.289062 C 30.609375 22.214844 30.609375 22.140625 30.390625 21.695312 C 30.167969 21.253906 30.167969 20.882812 30.019531 20.734375 C 30.019531 20.734375 29.945312 20.660156 29.945312 20.585938 L 31.425781 20.289062 C 31.5 20.660156 31.574219 21.253906 31.648438 21.472656 Z M 29.058594 19.402344 C 28.984375 19.105469 28.910156 18.664062 28.910156 18.367188 L 31.425781 19.253906 C 31.425781 19.253906 31.425781 19.253906 31.425781 19.328125 L 29.796875 20.289062 C 29.722656 20.140625 29.574219 19.921875 29.425781 19.847656 C 29.207031 19.625 29.132812 19.699219 29.058594 19.402344 Z M 29.058594 19.402344 " fill-opacity="1" fill-rule="nonzero"/></g></svg>