<svg xmlns="http://www.w3.org/2000/svg" xmlns:xlink="http://www.w3.org/1999/xlink" width="90" zoomAndPan="magnify" viewBox="0 0 67.5 67.499996" height="90" preserveAspectRatio="xMidYMid meet" version="1.0"><defs><clipPath id="9acdf0fc3b"><path d="M 14.632812 2 L 52.601562 2 L 52.601562 65 L 14.632812 65 Z M 14.632812 2 " clip-rule="nonzero"/></clipPath></defs><g clip-path="url(#9acdf0fc3b)"><path fill="#ffffff" d="M 43.03125 64.789062 L 52.367188 64.789062 C 48.433594 61.703125 45.421875 57.304688 43.109375 52.441406 L 43.648438 51.746094 L 43.648438 50.125 L 42.027344 50.125 C 41.253906 48.273438 40.5625 46.421875 39.945312 44.492188 L 41.179688 43.179688 L 41.179688 41.5625 L 39.09375 41.5625 C 34.773438 26.28125 34.851562 10.539062 34.851562 10.539062 C 34.851562 9.691406 35.390625 9.382812 35.390625 9.382812 L 35.390625 7.453125 L 34.925781 6.679688 L 35.082031 5.367188 L 34.773438 5.367188 L 34.773438 5.675781 L 34.15625 5.675781 L 33.925781 5.136719 L 33.925781 3.980469 L 33.691406 3.824219 L 33.691406 2.28125 L 33.539062 2.050781 L 33.308594 2.28125 L 33.308594 3.824219 L 33.074219 3.980469 L 33.074219 5.136719 L 32.84375 5.675781 L 32.226562 5.675781 L 32.226562 5.367188 L 31.917969 5.367188 L 32.070312 6.679688 L 31.609375 7.453125 L 31.609375 9.382812 C 31.609375 9.382812 32.070312 9.691406 32.148438 10.382812 L 32.148438 10.617188 C 32.148438 10.617188 32.226562 26.359375 27.90625 41.636719 L 25.820312 41.636719 L 25.820312 43.257812 L 27.054688 44.570312 C 26.4375 46.5 25.746094 48.351562 24.972656 50.203125 L 23.351562 50.203125 L 23.351562 51.824219 L 23.890625 52.519531 C 21.5 57.457031 18.492188 61.78125 14.632812 64.867188 L 23.96875 64.867188 L 24.125 64.945312 C 24.125 64.945312 25.050781 63.324219 26.363281 60.3125 C 27.828125 58.539062 30.066406 56.996094 33.460938 56.996094 C 36.855469 56.996094 39.171875 58.617188 40.5625 60.3125 C 41.871094 63.324219 42.796875 64.945312 42.796875 64.945312 Z M 31.222656 45.804688 C 31.453125 44.957031 31.609375 44.03125 31.839844 43.105469 L 35.3125 43.105469 C 35.542969 44.03125 35.699219 44.878906 35.929688 45.804688 C 36.316406 47.195312 36.625 48.582031 37.089844 49.972656 L 37.089844 50.050781 L 30.066406 50.050781 L 30.066406 49.972656 C 30.453125 48.660156 30.835938 47.195312 31.222656 45.804688 Z M 24.585938 63.398438 C 24.742188 62.9375 25.050781 62.398438 25.359375 61.78125 C 25.050781 62.472656 24.742188 62.9375 24.585938 63.398438 Z M 42.488281 63.398438 C 42.257812 62.9375 42.027344 62.398438 41.71875 61.78125 C 42.105469 62.398438 42.335938 62.9375 42.488281 63.398438 Z M 42.488281 63.398438 " fill-opacity="1" fill-rule="nonzero"/></g></svg>