<svg xmlns="http://www.w3.org/2000/svg" xmlns:xlink="http://www.w3.org/1999/xlink" width="90" zoomAndPan="magnify" viewBox="0 0 67.5 67.499996" height="90" preserveAspectRatio="xMidYMid meet" version="1.0"><defs><clipPath id="464e8ab8d8"><path d="M 3.144531 15.023438 L 64 15.023438 L 64 52 L 3.144531 52 Z M 3.144531 15.023438 " clip-rule="nonzero"/></clipPath></defs><g clip-path="url(#464e8ab8d8)"><path fill="#ffffff" d="M 63.824219 51.414062 L 62.757812 47.5625 C 62.601562 47 62.082031 46.605469 61.496094 46.605469 L 60 46.605469 L 59.019531 43.078125 C 58.863281 42.511719 58.34375 42.117188 57.757812 42.117188 L 56.261719 42.117188 L 55.28125 38.589844 C 55.125 38.023438 54.605469 37.632812 54.019531 37.632812 L 52.523438 37.632812 L 51.542969 34.101562 C 51.386719 33.539062 50.867188 33.144531 50.285156 33.144531 L 48.785156 33.144531 L 47.808594 29.613281 C 47.648438 29.050781 47.132812 28.65625 46.546875 28.65625 L 45.046875 28.65625 L 44.070312 25.125 C 43.914062 24.5625 43.394531 24.167969 42.808594 24.167969 L 40.011719 24.167969 L 40.011719 19.558594 C 40.011719 19.320312 39.816406 19.125 39.578125 19.125 C 39.335938 19.125 39.140625 19.320312 39.140625 19.558594 L 39.140625 24.167969 L 37.421875 24.167969 L 37.421875 21.574219 C 37.421875 21.058594 37.003906 20.640625 36.488281 20.640625 L 30.519531 20.640625 C 30.003906 20.640625 29.585938 21.058594 29.585938 21.574219 L 29.585938 24.167969 L 27.871094 24.167969 L 27.871094 17.988281 L 40.433594 17.988281 C 40.949219 17.988281 41.367188 17.566406 41.367188 17.050781 L 41.367188 15.980469 C 41.367188 15.464844 40.949219 15.046875 40.433594 15.046875 L 26.574219 15.046875 C 26.058594 15.046875 25.640625 15.464844 25.640625 15.980469 L 25.640625 17.050781 C 25.640625 17.566406 26.058594 17.988281 26.574219 17.988281 L 26.996094 17.988281 L 26.996094 24.167969 L 24.203125 24.167969 C 23.617188 24.167969 23.097656 24.5625 22.941406 25.125 L 21.960938 28.65625 L 20.464844 28.65625 C 19.878906 28.65625 19.359375 29.050781 19.203125 29.613281 L 18.222656 33.144531 L 16.726562 33.144531 C 16.140625 33.144531 15.621094 33.539062 15.464844 34.101562 L 14.488281 37.632812 L 12.988281 37.632812 C 12.402344 37.632812 11.886719 38.023438 11.726562 38.589844 L 10.75 42.117188 L 9.25 42.117188 C 8.664062 42.117188 8.148438 42.511719 7.992188 43.078125 L 7.011719 46.605469 L 5.515625 46.605469 C 4.929688 46.605469 4.410156 47 4.253906 47.5625 L 3.183594 51.414062 C 3.148438 51.542969 3.175781 51.683594 3.257812 51.792969 C 3.339844 51.902344 3.46875 51.964844 3.605469 51.964844 L 63.40625 51.964844 C 63.542969 51.964844 63.671875 51.902344 63.753906 51.792969 C 63.835938 51.683594 63.863281 51.542969 63.824219 51.414062 Z M 40.433594 15.917969 C 40.46875 15.917969 40.496094 15.945312 40.496094 15.980469 L 40.496094 17.050781 C 40.496094 17.085938 40.46875 17.113281 40.433594 17.113281 L 38.433594 17.113281 C 38.4375 17.09375 38.441406 17.074219 38.441406 17.054688 C 38.441406 16.605469 38.253906 16.203125 37.957031 15.917969 Z M 52.191406 38.503906 C 52.191406 38.503906 52.195312 38.503906 52.195312 38.503906 L 54.023438 38.503906 C 54.21875 38.503906 54.390625 38.632812 54.441406 38.820312 L 55.355469 42.117188 L 43.402344 42.117188 L 42.816406 38.503906 Z M 48.457031 34.015625 L 50.285156 34.015625 C 50.480469 34.015625 50.652344 34.148438 50.703125 34.335938 L 51.617188 37.632812 L 42.675781 37.632812 L 42.09375 34.015625 L 48.453125 34.015625 C 48.453125 34.015625 48.453125 34.015625 48.457031 34.015625 Z M 42.808594 25.039062 C 43.003906 25.039062 43.175781 25.171875 43.230469 25.359375 L 44.144531 28.65625 L 43.03125 28.65625 C 42.792969 28.65625 42.597656 28.851562 42.597656 29.09375 C 42.597656 29.332031 42.792969 29.527344 43.03125 29.527344 L 44.714844 29.527344 C 44.714844 29.527344 44.71875 29.527344 44.71875 29.527344 L 46.546875 29.527344 C 46.742188 29.527344 46.914062 29.660156 46.964844 29.847656 L 47.878906 33.144531 L 41.949219 33.144531 L 40.636719 25.039062 Z M 39.136719 49.335938 L 27.875 49.335938 C 27.632812 49.335938 27.4375 49.140625 27.4375 48.898438 C 27.4375 48.660156 27.632812 48.464844 27.875 48.464844 L 39.136719 48.464844 C 39.375 48.464844 39.570312 48.660156 39.570312 48.898438 C 39.570312 49.140625 39.378906 49.335938 39.136719 49.335938 Z M 38.589844 46.199219 L 28.421875 46.199219 C 28.183594 46.199219 27.988281 46.003906 27.988281 45.761719 C 27.988281 45.519531 28.183594 45.324219 28.421875 45.324219 L 38.589844 45.324219 C 38.832031 45.324219 39.027344 45.519531 39.027344 45.761719 C 39.027344 46.003906 38.832031 46.199219 38.589844 46.199219 Z M 38.070312 43.058594 L 28.941406 43.058594 C 28.699219 43.058594 28.503906 42.863281 28.503906 42.625 C 28.503906 42.382812 28.699219 42.1875 28.941406 42.1875 L 38.070312 42.1875 C 38.308594 42.1875 38.503906 42.382812 38.503906 42.625 C 38.503906 42.863281 38.3125 43.058594 38.070312 43.058594 Z M 36.097656 29.636719 C 36.339844 29.636719 36.535156 29.832031 36.535156 30.070312 C 36.535156 30.3125 36.339844 30.507812 36.097656 30.507812 L 30.914062 30.507812 C 30.671875 30.507812 30.476562 30.3125 30.476562 30.070312 C 30.476562 29.832031 30.671875 29.636719 30.914062 29.636719 Z M 31.035156 26.933594 C 31.035156 26.691406 31.230469 26.496094 31.472656 26.496094 L 35.539062 26.496094 C 35.78125 26.496094 35.976562 26.691406 35.976562 26.933594 C 35.976562 27.171875 35.78125 27.367188 35.539062 27.367188 L 31.472656 27.367188 C 31.230469 27.367188 31.035156 27.175781 31.035156 26.933594 Z M 30.425781 32.773438 L 36.585938 32.773438 C 36.824219 32.773438 37.019531 32.96875 37.019531 33.210938 C 37.019531 33.449219 36.824219 33.644531 36.585938 33.644531 L 30.425781 33.644531 C 30.1875 33.644531 29.992188 33.449219 29.992188 33.210938 C 29.992188 32.96875 30.1875 32.773438 30.425781 32.773438 Z M 37.066406 35.910156 C 37.304688 35.910156 37.5 36.109375 37.5 36.347656 C 37.5 36.589844 37.304688 36.785156 37.066406 36.785156 L 29.949219 36.785156 C 29.707031 36.785156 29.511719 36.589844 29.511719 36.347656 C 29.511719 36.109375 29.707031 35.910156 29.949219 35.910156 Z M 37.570312 39.050781 C 37.8125 39.050781 38.007812 39.246094 38.007812 39.484375 C 38.007812 39.726562 37.8125 39.921875 37.570312 39.921875 L 29.4375 39.921875 C 29.199219 39.921875 29 39.726562 29 39.484375 C 29 39.246094 29.199219 39.050781 29.4375 39.050781 Z M 30.457031 21.574219 C 30.457031 21.539062 30.484375 21.511719 30.519531 21.511719 L 31.785156 21.511719 L 31.785156 22.917969 C 31.785156 23.160156 31.980469 23.355469 32.222656 23.355469 C 32.460938 23.355469 32.65625 23.160156 32.65625 22.917969 L 32.65625 21.511719 L 34.355469 21.511719 L 34.355469 22.917969 C 34.355469 23.160156 34.550781 23.355469 34.789062 23.355469 C 35.03125 23.355469 35.226562 23.160156 35.226562 22.917969 L 35.226562 21.511719 L 36.492188 21.511719 C 36.527344 21.511719 36.554688 21.539062 36.554688 21.574219 L 36.554688 24.167969 L 30.460938 24.167969 L 30.460938 21.574219 Z M 23.78125 25.359375 C 23.832031 25.171875 24.007812 25.039062 24.203125 25.039062 L 26.371094 25.039062 L 25.785156 28.65625 L 22.867188 28.65625 Z M 20.042969 29.847656 C 20.097656 29.660156 20.269531 29.527344 20.464844 29.527344 L 25.644531 29.527344 L 25.058594 33.144531 L 19.128906 33.144531 Z M 16.304688 34.335938 C 16.359375 34.148438 16.53125 34.015625 16.726562 34.015625 L 24.917969 34.015625 L 24.332031 37.632812 L 15.390625 37.632812 Z M 12.570312 38.820312 C 12.621094 38.632812 12.792969 38.503906 12.988281 38.503906 L 14.816406 38.503906 C 14.816406 38.503906 14.820312 38.503906 14.820312 38.503906 L 24.191406 38.503906 L 23.605469 42.117188 L 11.652344 42.117188 Z M 8.832031 43.308594 C 8.882812 43.121094 9.058594 42.992188 9.25 42.992188 L 11.078125 42.992188 C 11.078125 42.992188 11.082031 42.992188 11.082031 42.992188 L 23.464844 42.992188 L 22.878906 46.605469 L 7.914062 46.605469 Z M 5.09375 47.796875 C 5.144531 47.609375 5.320312 47.476562 5.515625 47.476562 L 7.339844 47.476562 C 7.339844 47.476562 7.34375 47.476562 7.34375 47.476562 L 22.738281 47.476562 L 22.429688 49.375 C 22.390625 49.613281 22.554688 49.839844 22.792969 49.875 C 22.816406 49.878906 22.839844 49.882812 22.859375 49.882812 C 23.070312 49.882812 23.257812 49.730469 23.289062 49.515625 L 27.253906 25.039062 L 28.691406 25.039062 L 25.074219 51.09375 L 4.179688 51.09375 Z M 41.933594 51.09375 L 38.316406 25.039062 L 39.753906 25.039062 L 43.972656 51.09375 Z M 43.546875 42.992188 L 57.757812 42.992188 C 57.953125 42.992188 58.125 43.121094 58.179688 43.308594 L 59.09375 46.605469 L 44.128906 46.605469 Z M 44.859375 51.09375 L 44.273438 47.476562 L 61.496094 47.476562 C 61.691406 47.476562 61.863281 47.609375 61.917969 47.796875 L 62.832031 51.09375 Z M 44.859375 51.09375 " fill-opacity="1" fill-rule="nonzero"/></g></svg>