<svg xmlns="http://www.w3.org/2000/svg" xmlns:xlink="http://www.w3.org/1999/xlink" width="90" zoomAndPan="magnify" viewBox="0 0 67.5 67.499996" height="90" preserveAspectRatio="xMidYMid meet" version="1.0"><defs><clipPath id="f4b290a82d"><path d="M 3 29.085938 L 61.417969 29.085938 L 61.417969 62.585938 L 3 62.585938 Z M 3 29.085938 " clip-rule="nonzero"/></clipPath><clipPath id="4c86e2cad6"><path d="M 0.0976562 0.375 L 58.417969 0.375 L 58.417969 33.585938 L 0.0976562 33.585938 Z M 0.0976562 0.375 " clip-rule="nonzero"/></clipPath><clipPath id="8dac36b597"><rect x="0" width="59" y="0" height="34"/></clipPath><clipPath id="1445e03534"><path d="M 3 4.117188 L 61.417969 4.117188 L 61.417969 37.621094 L 3 37.621094 Z M 3 4.117188 " clip-rule="nonzero"/></clipPath></defs><g clip-path="url(#f4b290a82d)"><g transform="matrix(1, 0, 0, 1, 3, 29)"><g clip-path="url(#8dac36b597)"><g clip-path="url(#4c86e2cad6)"><path fill="#7a98c9" d="M 57.179688 32.167969 C 56.984375 32.378906 56.769531 32.566406 56.53125 32.734375 C 56.296875 32.902344 56.050781 33.042969 55.785156 33.160156 C 55.519531 33.273438 55.25 33.363281 54.964844 33.421875 C 54.683594 33.480469 54.398438 33.507812 54.113281 33.507812 C 53.824219 33.507812 53.539062 33.480469 53.257812 33.421875 C 52.972656 33.363281 52.703125 33.273438 52.4375 33.160156 C 52.175781 33.042969 51.925781 32.902344 51.691406 32.734375 C 51.457031 32.566406 51.242188 32.378906 51.046875 32.167969 L 29.394531 10.472656 L 7.617188 32.167969 C 7.414062 32.367188 7.195312 32.546875 6.957031 32.707031 C 6.722656 32.863281 6.472656 32.996094 6.207031 33.105469 C 5.945312 33.214844 5.675781 33.296875 5.394531 33.351562 C 5.117188 33.40625 4.835938 33.4375 4.550781 33.433594 C 4.265625 33.433594 3.984375 33.40625 3.703125 33.351562 C 3.425781 33.296875 3.152344 33.214844 2.890625 33.105469 C 2.628906 32.996094 2.378906 32.863281 2.140625 32.703125 C 1.902344 32.546875 1.683594 32.367188 1.484375 32.164062 C 1.28125 31.964844 1.101562 31.746094 0.945312 31.507812 C 0.785156 31.273438 0.652344 31.023438 0.542969 30.757812 C 0.433594 30.496094 0.351562 30.226562 0.296875 29.945312 C 0.242188 29.667969 0.214844 29.382812 0.214844 29.101562 C 0.214844 28.816406 0.242188 28.53125 0.296875 28.253906 C 0.351562 27.976562 0.433594 27.703125 0.542969 27.441406 C 0.652344 27.175781 0.785156 26.925781 0.945312 26.691406 C 1.101562 26.453125 1.28125 26.234375 1.484375 26.035156 L 26.265625 1.253906 C 26.460938 1.039062 26.675781 0.851562 26.910156 0.683594 C 27.144531 0.515625 27.394531 0.375 27.65625 0.261719 C 27.921875 0.144531 28.191406 0.0585938 28.476562 -0.00390625 C 28.757812 -0.0625 29.042969 -0.0898438 29.332031 -0.0898438 C 29.617188 -0.0898438 29.902344 -0.0625 30.183594 -0.00390625 C 30.46875 0.0585938 30.738281 0.144531 31.003906 0.261719 C 31.269531 0.375 31.515625 0.515625 31.75 0.683594 C 31.988281 0.851562 32.203125 1.039062 32.398438 1.253906 L 57.179688 26.035156 C 57.390625 26.230469 57.578125 26.445312 57.746094 26.679688 C 57.914062 26.914062 58.054688 27.164062 58.171875 27.425781 C 58.285156 27.691406 58.375 27.964844 58.433594 28.246094 C 58.492188 28.527344 58.519531 28.8125 58.519531 29.101562 C 58.519531 29.386719 58.492188 29.671875 58.433594 29.957031 C 58.375 30.238281 58.285156 30.511719 58.171875 30.773438 C 58.054688 31.039062 57.914062 31.285156 57.746094 31.523438 C 57.578125 31.757812 57.390625 31.972656 57.179688 32.167969 Z M 57.179688 32.167969 " fill-opacity="1" fill-rule="nonzero"/></g></g></g></g><g clip-path="url(#1445e03534)"><path fill="#7a98c9" d="M 60.179688 5.828125 C 59.984375 5.617188 59.769531 5.425781 59.53125 5.261719 C 59.296875 5.09375 59.050781 4.953125 58.785156 4.835938 C 58.519531 4.71875 58.25 4.632812 57.964844 4.574219 C 57.683594 4.515625 57.398438 4.484375 57.113281 4.484375 C 56.824219 4.484375 56.539062 4.515625 56.257812 4.574219 C 55.972656 4.632812 55.703125 4.71875 55.4375 4.835938 C 55.175781 4.953125 54.925781 5.09375 54.691406 5.261719 C 54.457031 5.425781 54.242188 5.617188 54.046875 5.828125 L 32.394531 27.523438 L 10.617188 5.828125 C 10.414062 5.628906 10.195312 5.449219 9.957031 5.289062 C 9.722656 5.132812 9.472656 4.996094 9.207031 4.890625 C 8.945312 4.78125 8.675781 4.699219 8.394531 4.640625 C 8.117188 4.585938 7.835938 4.558594 7.550781 4.558594 C 7.265625 4.558594 6.984375 4.585938 6.703125 4.644531 C 6.425781 4.699219 6.152344 4.78125 5.890625 4.890625 C 5.628906 5 5.378906 5.132812 5.140625 5.289062 C 4.902344 5.449219 4.683594 5.628906 4.484375 5.828125 C 4.28125 6.03125 4.101562 6.25 3.945312 6.488281 C 3.785156 6.722656 3.652344 6.972656 3.542969 7.234375 C 3.433594 7.5 3.351562 7.769531 3.296875 8.050781 C 3.242188 8.328125 3.214844 8.609375 3.214844 8.894531 C 3.214844 9.179688 3.242188 9.460938 3.296875 9.742188 C 3.351562 10.019531 3.433594 10.292969 3.542969 10.554688 C 3.652344 10.816406 3.785156 11.066406 3.945312 11.304688 C 4.101562 11.539062 4.28125 11.761719 4.484375 11.960938 L 29.265625 36.742188 C 29.460938 36.953125 29.675781 37.144531 29.910156 37.3125 C 30.144531 37.476562 30.394531 37.621094 30.65625 37.734375 C 30.921875 37.851562 31.191406 37.9375 31.476562 37.996094 C 31.757812 38.054688 32.042969 38.085938 32.332031 38.085938 C 32.617188 38.085938 32.902344 38.054688 33.183594 37.996094 C 33.46875 37.9375 33.738281 37.851562 34.003906 37.734375 C 34.269531 37.621094 34.515625 37.476562 34.75 37.3125 C 34.988281 37.144531 35.203125 36.953125 35.398438 36.742188 L 60.179688 11.960938 C 60.390625 11.765625 60.578125 11.550781 60.746094 11.316406 C 60.914062 11.082031 61.054688 10.832031 61.171875 10.570312 C 61.285156 10.304688 61.375 10.03125 61.433594 9.75 C 61.492188 9.46875 61.519531 9.183594 61.519531 8.894531 C 61.519531 8.605469 61.492188 8.320312 61.433594 8.039062 C 61.375 7.757812 61.285156 7.484375 61.171875 7.222656 C 61.054688 6.957031 60.914062 6.707031 60.746094 6.472656 C 60.578125 6.238281 60.390625 6.023438 60.179688 5.828125 Z M 60.179688 5.828125 " fill-opacity="1" fill-rule="nonzero"/></g></svg>